<svg width="24" height="25" viewBox="0 0 24 25" fill="none" xmlns="http://www.w3.org/2000/svg">
<path d="M13 11.275C12.8167 11.0917 12.725 10.8583 12.725 10.575C12.725 10.2917 12.8167 10.0583 13 9.875L18.8752 4H16.2752C15.9918 4 15.7542 3.904 15.5622 3.712C15.3702 3.52 15.2745 3.28267 15.2752 3C15.2752 2.71667 15.3712 2.479 15.5632 2.287C15.7552 2.095 15.9925 1.99934 16.2752 2H21.2752C21.5585 2 21.7962 2.096 21.9882 2.288C22.1802 2.48 22.2758 2.71734 22.2752 3V8C22.2752 8.28334 22.1792 8.521 21.9872 8.713C21.7952 8.905 21.5578 9.00067 21.2752 9C20.9918 9 20.7542 8.904 20.5622 8.712C20.3702 8.52 20.2745 8.28267 20.2752 8V5.4L14.375 11.3C14.1917 11.4833 13.9667 11.575 13.7 11.575C13.4333 11.575 13.2 11.475 13 11.275Z" fill="#504A4A"/>
<path d="M3.587 20.912C3.979 21.304 4.45 21.5 5 21.5H19C19.5493 21.5007 20.02 21.305 20.412 20.913C20.804 20.521 21 20.05 21 19.5V13.5C21.0007 13.2173 20.905 12.98 20.713 12.788C20.521 12.596 20.2833 12.5 20 12.5C19.7173 12.4993 19.48 12.595 19.288 12.787C19.096 12.979 19 13.2167 19 13.5V19.5H5V5.5H11C11.2827 5.50067 11.52 5.405 11.712 5.213C11.904 5.021 12 4.78334 12 4.5C12.0007 4.21734 11.905 3.98 11.713 3.788C11.521 3.596 11.2833 3.5 11 3.5H5C4.45067 3.49934 3.98 3.695 3.588 4.087C3.196 4.479 3 4.95 3 5.5V19.5C2.99934 20.0493 3.195 20.52 3.587 20.912Z" fill="#504A4A"/>
</svg>
